<mxfile host="app.diagrams.net" modified="2024-04-03T06:22:50.412Z" agent="Mozilla/5.0 (Windows NT 10.0; Win64; x64) AppleWebKit/537.36 (KHTML, like Gecko) Chrome/122.0.0.0 Safari/537.36 Edg/122.0.0.0" version="24.2.1" etag="-zgWOCDZ51fPxWgTK6Ri" type="device">
  <diagram name="Page-1" id="4t8xZcHpd4AgFq5MlwhO">
    <mxGraphModel dx="1710" dy="1822" grid="1" gridSize="10" guides="1" tooltips="1" connect="1" arrows="1" fold="1" page="1" pageScale="1" pageWidth="850" pageHeight="1100" math="0" shadow="0">
      <root>
        <mxCell id="0" />
        <mxCell id="1" parent="0" />
        <mxCell id="AfkZM9CXT5jYsA7M5CDT-1" value="Manager" style="swimlane;fontStyle=1;align=center;verticalAlign=top;childLayout=stackLayout;horizontal=1;startSize=26;horizontalStack=0;resizeParent=1;resizeParentMax=0;resizeLast=0;collapsible=1;marginBottom=0;whiteSpace=wrap;html=1;" parent="1" vertex="1">
          <mxGeometry x="160" y="-20" width="290" height="110" as="geometry" />
        </mxCell>
        <mxCell id="AfkZM9CXT5jYsA7M5CDT-2" value="+ ID: num&lt;div&gt;+ Username: string&lt;/div&gt;&lt;div&gt;&lt;br&gt;&lt;/div&gt;&lt;div&gt;&lt;div&gt;&lt;br&gt;&lt;/div&gt;&lt;/div&gt;" style="text;strokeColor=none;fillColor=none;align=left;verticalAlign=top;spacingLeft=4;spacingRight=4;overflow=hidden;rotatable=0;points=[[0,0.5],[1,0.5]];portConstraint=eastwest;whiteSpace=wrap;html=1;" parent="AfkZM9CXT5jYsA7M5CDT-1" vertex="1">
          <mxGeometry y="26" width="290" height="44" as="geometry" />
        </mxCell>
        <mxCell id="AfkZM9CXT5jYsA7M5CDT-3" value="" style="line;strokeWidth=1;fillColor=none;align=left;verticalAlign=middle;spacingTop=-1;spacingLeft=3;spacingRight=3;rotatable=0;labelPosition=right;points=[];portConstraint=eastwest;strokeColor=inherit;" parent="AfkZM9CXT5jYsA7M5CDT-1" vertex="1">
          <mxGeometry y="70" width="290" height="8" as="geometry" />
        </mxCell>
        <mxCell id="AfkZM9CXT5jYsA7M5CDT-4" value="+ Log_Out(): Void&lt;div&gt;&lt;br&gt;&lt;/div&gt;" style="text;strokeColor=none;fillColor=none;align=left;verticalAlign=top;spacingLeft=4;spacingRight=4;overflow=hidden;rotatable=0;points=[[0,0.5],[1,0.5]];portConstraint=eastwest;whiteSpace=wrap;html=1;" parent="AfkZM9CXT5jYsA7M5CDT-1" vertex="1">
          <mxGeometry y="78" width="290" height="32" as="geometry" />
        </mxCell>
        <mxCell id="AfkZM9CXT5jYsA7M5CDT-10" value="Classname" style="swimlane;fontStyle=1;align=center;verticalAlign=top;childLayout=stackLayout;horizontal=1;startSize=0;horizontalStack=0;resizeParent=1;resizeParentMax=0;resizeLast=0;collapsible=1;marginBottom=0;whiteSpace=wrap;html=1;" parent="1" vertex="1" collapsed="1">
          <mxGeometry x="870" y="-180" width="100" height="30" as="geometry">
            <mxRectangle x="20" y="50" width="160" height="240" as="alternateBounds" />
          </mxGeometry>
        </mxCell>
        <mxCell id="AfkZM9CXT5jYsA7M5CDT-11" value="+ field: type&lt;div&gt;+ field: type&lt;br&gt;&lt;/div&gt;&lt;div&gt;+ field: type&lt;br&gt;&lt;/div&gt;&lt;div&gt;+ field: type&lt;br&gt;&lt;/div&gt;&lt;div&gt;+ field: type&lt;br&gt;&lt;/div&gt;&lt;div&gt;+ field: type&lt;/div&gt;" style="text;strokeColor=none;fillColor=none;align=left;verticalAlign=top;spacingLeft=4;spacingRight=4;overflow=hidden;rotatable=0;points=[[0,0.5],[1,0.5]];portConstraint=eastwest;whiteSpace=wrap;html=1;" parent="AfkZM9CXT5jYsA7M5CDT-10" vertex="1">
          <mxGeometry y="26" width="160" height="104" as="geometry" />
        </mxCell>
        <mxCell id="AfkZM9CXT5jYsA7M5CDT-12" value="" style="line;strokeWidth=1;fillColor=none;align=left;verticalAlign=middle;spacingTop=-1;spacingLeft=3;spacingRight=3;rotatable=0;labelPosition=right;points=[];portConstraint=eastwest;strokeColor=inherit;" parent="AfkZM9CXT5jYsA7M5CDT-10" vertex="1">
          <mxGeometry y="130" width="160" height="8" as="geometry" />
        </mxCell>
        <mxCell id="AfkZM9CXT5jYsA7M5CDT-13" value="+ method(type): type&lt;div&gt;+ method(type): type&lt;br&gt;&lt;/div&gt;&lt;div&gt;+ method(type): type&lt;br&gt;&lt;/div&gt;&lt;div&gt;+ method(type): type&lt;br&gt;&lt;/div&gt;&lt;div&gt;+ method(type): type&lt;br&gt;&lt;/div&gt;&lt;div&gt;+ method(type): type&lt;br&gt;&lt;/div&gt;" style="text;strokeColor=none;fillColor=none;align=left;verticalAlign=top;spacingLeft=4;spacingRight=4;overflow=hidden;rotatable=0;points=[[0,0.5],[1,0.5]];portConstraint=eastwest;whiteSpace=wrap;html=1;" parent="AfkZM9CXT5jYsA7M5CDT-10" vertex="1">
          <mxGeometry y="138" width="160" height="102" as="geometry" />
        </mxCell>
        <mxCell id="AfkZM9CXT5jYsA7M5CDT-14" value="Login" style="swimlane;fontStyle=1;align=center;verticalAlign=top;childLayout=stackLayout;horizontal=1;startSize=26;horizontalStack=0;resizeParent=1;resizeParentMax=0;resizeLast=0;collapsible=1;marginBottom=0;whiteSpace=wrap;html=1;" parent="1" vertex="1">
          <mxGeometry x="30" y="140" width="160" height="220" as="geometry">
            <mxRectangle x="50" y="150" width="100" height="30" as="alternateBounds" />
          </mxGeometry>
        </mxCell>
        <mxCell id="AfkZM9CXT5jYsA7M5CDT-15" value="+ Username: string&lt;div&gt;+ Password: string&amp;nbsp;&lt;br&gt;&lt;/div&gt;&lt;div&gt;+ Email: string@address&lt;br&gt;&lt;/div&gt;&lt;div&gt;+ Validate: string&amp;nbsp;&lt;br&gt;&lt;/div&gt;&lt;div&gt;+ Validate Ans: string&lt;br&gt;&lt;/div&gt;&lt;div&gt;&lt;br&gt;&lt;/div&gt;" style="text;strokeColor=none;fillColor=none;align=left;verticalAlign=top;spacingLeft=4;spacingRight=4;overflow=hidden;rotatable=0;points=[[0,0.5],[1,0.5]];portConstraint=eastwest;whiteSpace=wrap;html=1;" parent="AfkZM9CXT5jYsA7M5CDT-14" vertex="1">
          <mxGeometry y="26" width="160" height="84" as="geometry" />
        </mxCell>
        <mxCell id="AfkZM9CXT5jYsA7M5CDT-16" value="" style="line;strokeWidth=1;fillColor=none;align=left;verticalAlign=middle;spacingTop=-1;spacingLeft=3;spacingRight=3;rotatable=0;labelPosition=right;points=[];portConstraint=eastwest;strokeColor=inherit;" parent="AfkZM9CXT5jYsA7M5CDT-14" vertex="1">
          <mxGeometry y="110" width="160" height="8" as="geometry" />
        </mxCell>
        <mxCell id="AfkZM9CXT5jYsA7M5CDT-17" value="+ Sign_In(string, string): boolean&lt;div&gt;+ Sign_Up(): new Object&lt;br&gt;&lt;/div&gt;&lt;div&gt;+ Forgot(string, string): string?&lt;/div&gt;&lt;div&gt;+ Check_Valid_Email()&lt;/div&gt;" style="text;strokeColor=none;fillColor=none;align=left;verticalAlign=top;spacingLeft=4;spacingRight=4;overflow=hidden;rotatable=0;points=[[0,0.5],[1,0.5]];portConstraint=eastwest;whiteSpace=wrap;html=1;" parent="AfkZM9CXT5jYsA7M5CDT-14" vertex="1">
          <mxGeometry y="118" width="160" height="102" as="geometry" />
        </mxCell>
        <mxCell id="AfkZM9CXT5jYsA7M5CDT-18" value="Vehicle" style="swimlane;fontStyle=1;align=center;verticalAlign=top;childLayout=stackLayout;horizontal=1;startSize=26;horizontalStack=0;resizeParent=1;resizeParentMax=0;resizeLast=0;collapsible=1;marginBottom=0;whiteSpace=wrap;html=1;" parent="1" vertex="1">
          <mxGeometry x="290" y="540" width="160" height="220" as="geometry">
            <mxRectangle x="290" y="600" width="100" height="30" as="alternateBounds" />
          </mxGeometry>
        </mxCell>
        <mxCell id="AfkZM9CXT5jYsA7M5CDT-19" value="+ ID: int&lt;div&gt;+ Control_Plate: string&lt;br&gt;&lt;div&gt;+ Type: string (enum)&lt;/div&gt;&lt;div&gt;+ Status: string (enum)&lt;/div&gt;&lt;div&gt;+ Recent_Trip: Object&lt;/div&gt;&lt;div&gt;+ Maintenance: Object&lt;/div&gt;&lt;/div&gt;" style="text;strokeColor=none;fillColor=none;align=left;verticalAlign=top;spacingLeft=4;spacingRight=4;overflow=hidden;rotatable=0;points=[[0,0.5],[1,0.5]];portConstraint=eastwest;whiteSpace=wrap;html=1;" parent="AfkZM9CXT5jYsA7M5CDT-18" vertex="1">
          <mxGeometry y="26" width="160" height="104" as="geometry" />
        </mxCell>
        <mxCell id="AfkZM9CXT5jYsA7M5CDT-20" value="" style="line;strokeWidth=1;fillColor=none;align=left;verticalAlign=middle;spacingTop=-1;spacingLeft=3;spacingRight=3;rotatable=0;labelPosition=right;points=[];portConstraint=eastwest;strokeColor=inherit;" parent="AfkZM9CXT5jYsA7M5CDT-18" vertex="1">
          <mxGeometry y="130" width="160" height="8" as="geometry" />
        </mxCell>
        <mxCell id="AfkZM9CXT5jYsA7M5CDT-21" value="&lt;div&gt;&lt;span style=&quot;background-color: initial;&quot;&gt;+ Vehicles_info()&lt;/span&gt;&lt;br&gt;&lt;/div&gt;&lt;div&gt;+ Alert_Maintenance(type): boolean&lt;br&gt;&lt;/div&gt;&lt;div&gt;+ Update_Info()&lt;/div&gt;" style="text;strokeColor=none;fillColor=none;align=left;verticalAlign=top;spacingLeft=4;spacingRight=4;overflow=hidden;rotatable=0;points=[[0,0.5],[1,0.5]];portConstraint=eastwest;whiteSpace=wrap;html=1;" parent="AfkZM9CXT5jYsA7M5CDT-18" vertex="1">
          <mxGeometry y="138" width="160" height="82" as="geometry" />
        </mxCell>
        <mxCell id="AfkZM9CXT5jYsA7M5CDT-22" value="Vehicles_Wrapper" style="swimlane;fontStyle=1;align=center;verticalAlign=top;childLayout=stackLayout;horizontal=1;startSize=26;horizontalStack=0;resizeParent=1;resizeParentMax=0;resizeLast=0;collapsible=1;marginBottom=0;whiteSpace=wrap;html=1;" parent="1" vertex="1">
          <mxGeometry x="320" y="200" width="160" height="200" as="geometry">
            <mxRectangle x="320" y="200" width="100" height="30" as="alternateBounds" />
          </mxGeometry>
        </mxCell>
        <mxCell id="AfkZM9CXT5jYsA7M5CDT-23" value="+ Vehicles_List: type&lt;div&gt;+ : type&lt;br&gt;&lt;/div&gt;&lt;div&gt;+ field: type&lt;br&gt;&lt;/div&gt;&lt;div&gt;&lt;br&gt;&lt;/div&gt;&lt;div&gt;&lt;br&gt;&lt;/div&gt;" style="text;strokeColor=none;fillColor=none;align=left;verticalAlign=top;spacingLeft=4;spacingRight=4;overflow=hidden;rotatable=0;points=[[0,0.5],[1,0.5]];portConstraint=eastwest;whiteSpace=wrap;html=1;" parent="AfkZM9CXT5jYsA7M5CDT-22" vertex="1">
          <mxGeometry y="26" width="160" height="54" as="geometry" />
        </mxCell>
        <mxCell id="AfkZM9CXT5jYsA7M5CDT-24" value="" style="line;strokeWidth=1;fillColor=none;align=left;verticalAlign=middle;spacingTop=-1;spacingLeft=3;spacingRight=3;rotatable=0;labelPosition=right;points=[];portConstraint=eastwest;strokeColor=inherit;" parent="AfkZM9CXT5jYsA7M5CDT-22" vertex="1">
          <mxGeometry y="80" width="160" height="8" as="geometry" />
        </mxCell>
        <mxCell id="AfkZM9CXT5jYsA7M5CDT-25" value="+ Add()&lt;div&gt;+ Delete()&lt;br&gt;&lt;/div&gt;&lt;div&gt;+ Search()&lt;br&gt;&lt;/div&gt;&lt;div&gt;+ Edit()&lt;br&gt;&lt;/div&gt;&lt;div&gt;+ Maintenance_List()&lt;br&gt;&lt;/div&gt;&lt;div&gt;+ Active_List()&lt;br&gt;&lt;/div&gt;&lt;div&gt;+ Unavailable_List()&lt;/div&gt;" style="text;strokeColor=none;fillColor=none;align=left;verticalAlign=top;spacingLeft=4;spacingRight=4;overflow=hidden;rotatable=0;points=[[0,0.5],[1,0.5]];portConstraint=eastwest;whiteSpace=wrap;html=1;" parent="AfkZM9CXT5jYsA7M5CDT-22" vertex="1">
          <mxGeometry y="88" width="160" height="112" as="geometry" />
        </mxCell>
        <mxCell id="AfkZM9CXT5jYsA7M5CDT-26" value="Trip_Info" style="swimlane;fontStyle=1;align=center;verticalAlign=top;childLayout=stackLayout;horizontal=1;startSize=26;horizontalStack=0;resizeParent=1;resizeParentMax=0;resizeLast=0;collapsible=1;marginBottom=0;whiteSpace=wrap;html=1;" parent="1" vertex="1">
          <mxGeometry x="570" y="540" width="160" height="190" as="geometry">
            <mxRectangle x="570" y="540" width="100" height="30" as="alternateBounds" />
          </mxGeometry>
        </mxCell>
        <mxCell id="AfkZM9CXT5jYsA7M5CDT-27" value="&lt;div&gt;+ Trip_ID: int ?&lt;/div&gt;+ Driver_ID: int&lt;div&gt;+ Sub_Driver_ID: int&lt;br&gt;&lt;/div&gt;&lt;div&gt;+ ID: int&lt;br&gt;&lt;/div&gt;&lt;div&gt;+ Start_Dest: string&amp;nbsp;&lt;br&gt;&lt;/div&gt;&lt;div&gt;+ End_Dest: string&lt;br&gt;&lt;/div&gt;&lt;div&gt;+ Start_Time: time&lt;/div&gt;&lt;div&gt;+ End_Time: time&lt;/div&gt;&lt;div&gt;+ Customer_ID: int&lt;/div&gt;&lt;div&gt;+ Revenue: int&lt;/div&gt;&lt;div&gt;&lt;br&gt;&lt;/div&gt;" style="text;strokeColor=none;fillColor=none;align=left;verticalAlign=top;spacingLeft=4;spacingRight=4;overflow=hidden;rotatable=0;points=[[0,0.5],[1,0.5]];portConstraint=eastwest;whiteSpace=wrap;html=1;" parent="AfkZM9CXT5jYsA7M5CDT-26" vertex="1">
          <mxGeometry y="26" width="160" height="164" as="geometry" />
        </mxCell>
        <mxCell id="AfkZM9CXT5jYsA7M5CDT-30" value="1" style="endArrow=open;html=1;endSize=12;startArrow=diamondThin;startSize=14;startFill=1;edgeStyle=orthogonalEdgeStyle;align=left;verticalAlign=bottom;rounded=0;entryX=1.002;entryY=0.711;entryDx=0;entryDy=0;entryPerimeter=0;exitX=0;exitY=0.451;exitDx=0;exitDy=0;exitPerimeter=0;" parent="1" source="AfkZM9CXT5jYsA7M5CDT-27" target="AfkZM9CXT5jYsA7M5CDT-19" edge="1">
          <mxGeometry x="-1" y="3" relative="1" as="geometry">
            <mxPoint x="550" y="640" as="sourcePoint" />
            <mxPoint x="460" y="647" as="targetPoint" />
            <Array as="points">
              <mxPoint x="530" y="640" />
              <mxPoint x="530" y="640" />
            </Array>
          </mxGeometry>
        </mxCell>
        <mxCell id="AfkZM9CXT5jYsA7M5CDT-31" value="" style="endArrow=none;html=1;edgeStyle=orthogonalEdgeStyle;rounded=0;entryX=0.5;entryY=0;entryDx=0;entryDy=0;exitX=0.438;exitY=1;exitDx=0;exitDy=0;exitPerimeter=0;" parent="1" source="AfkZM9CXT5jYsA7M5CDT-21" target="AfkZM9CXT5jYsA7M5CDT-51" edge="1">
          <mxGeometry relative="1" as="geometry">
            <mxPoint x="360" y="770" as="sourcePoint" />
            <mxPoint x="160" y="890" as="targetPoint" />
            <Array as="points">
              <mxPoint x="360" y="780" />
              <mxPoint x="210" y="780" />
              <mxPoint x="210" y="840" />
            </Array>
          </mxGeometry>
        </mxCell>
        <mxCell id="AfkZM9CXT5jYsA7M5CDT-33" value="child" style="edgeLabel;resizable=0;html=1;align=right;verticalAlign=bottom;" parent="AfkZM9CXT5jYsA7M5CDT-31" connectable="0" vertex="1">
          <mxGeometry x="1" relative="1" as="geometry" />
        </mxCell>
        <mxCell id="AfkZM9CXT5jYsA7M5CDT-34" value="" style="endArrow=none;html=1;edgeStyle=orthogonalEdgeStyle;rounded=0;entryX=0.5;entryY=0;entryDx=0;entryDy=0;" parent="1" target="AfkZM9CXT5jYsA7M5CDT-59" edge="1">
          <mxGeometry relative="1" as="geometry">
            <mxPoint x="360" y="760" as="sourcePoint" />
            <mxPoint x="520" y="900" as="targetPoint" />
            <Array as="points">
              <mxPoint x="360" y="780" />
              <mxPoint x="510" y="780" />
            </Array>
          </mxGeometry>
        </mxCell>
        <mxCell id="AfkZM9CXT5jYsA7M5CDT-36" value="child" style="edgeLabel;resizable=0;html=1;align=right;verticalAlign=bottom;" parent="AfkZM9CXT5jYsA7M5CDT-34" connectable="0" vertex="1">
          <mxGeometry x="1" relative="1" as="geometry" />
        </mxCell>
        <mxCell id="AfkZM9CXT5jYsA7M5CDT-37" value="" style="endArrow=none;html=1;edgeStyle=orthogonalEdgeStyle;rounded=0;entryX=0.5;entryY=0;entryDx=0;entryDy=0;" parent="1" target="AfkZM9CXT5jYsA7M5CDT-56" edge="1">
          <mxGeometry relative="1" as="geometry">
            <mxPoint x="360" y="760" as="sourcePoint" />
            <mxPoint x="360" y="850" as="targetPoint" />
            <Array as="points">
              <mxPoint x="360" y="760" />
              <mxPoint x="360" y="840" />
              <mxPoint x="360" y="840" />
            </Array>
          </mxGeometry>
        </mxCell>
        <mxCell id="AfkZM9CXT5jYsA7M5CDT-38" value="parent" style="edgeLabel;resizable=0;html=1;align=left;verticalAlign=bottom;" parent="AfkZM9CXT5jYsA7M5CDT-37" connectable="0" vertex="1">
          <mxGeometry x="-1" relative="1" as="geometry">
            <mxPoint y="20" as="offset" />
          </mxGeometry>
        </mxCell>
        <mxCell id="AfkZM9CXT5jYsA7M5CDT-39" value="child" style="edgeLabel;resizable=0;html=1;align=right;verticalAlign=bottom;" parent="AfkZM9CXT5jYsA7M5CDT-37" connectable="0" vertex="1">
          <mxGeometry x="1" relative="1" as="geometry">
            <mxPoint x="5" as="offset" />
          </mxGeometry>
        </mxCell>
        <mxCell id="AfkZM9CXT5jYsA7M5CDT-51" value="Truck" style="swimlane;fontStyle=0;childLayout=stackLayout;horizontal=1;startSize=26;fillColor=none;horizontalStack=0;resizeParent=1;resizeParentMax=0;resizeLast=0;collapsible=1;marginBottom=0;whiteSpace=wrap;html=1;" parent="1" vertex="1" collapsed="1">
          <mxGeometry x="140" y="840" width="70" height="30" as="geometry">
            <mxRectangle x="140" y="840" width="140" height="78" as="alternateBounds" />
          </mxGeometry>
        </mxCell>
        <mxCell id="AfkZM9CXT5jYsA7M5CDT-52" value="+ Weight: int" style="text;strokeColor=none;fillColor=none;align=left;verticalAlign=top;spacingLeft=4;spacingRight=4;overflow=hidden;rotatable=0;points=[[0,0.5],[1,0.5]];portConstraint=eastwest;whiteSpace=wrap;html=1;" parent="AfkZM9CXT5jYsA7M5CDT-51" vertex="1">
          <mxGeometry y="26" width="140" height="26" as="geometry" />
        </mxCell>
        <mxCell id="AfkZM9CXT5jYsA7M5CDT-53" value="+ Fuel: int" style="text;strokeColor=none;fillColor=none;align=left;verticalAlign=top;spacingLeft=4;spacingRight=4;overflow=hidden;rotatable=0;points=[[0,0.5],[1,0.5]];portConstraint=eastwest;whiteSpace=wrap;html=1;" parent="AfkZM9CXT5jYsA7M5CDT-51" vertex="1">
          <mxGeometry y="52" width="140" height="26" as="geometry" />
        </mxCell>
        <mxCell id="AfkZM9CXT5jYsA7M5CDT-56" value="Coach" style="swimlane;fontStyle=0;childLayout=stackLayout;horizontal=1;startSize=26;fillColor=none;horizontalStack=0;resizeParent=1;resizeParentMax=0;resizeLast=0;collapsible=1;marginBottom=0;whiteSpace=wrap;html=1;" parent="1" vertex="1" collapsed="1">
          <mxGeometry x="290" y="840" width="70" height="30" as="geometry">
            <mxRectangle x="290" y="840" width="140" height="78" as="alternateBounds" />
          </mxGeometry>
        </mxCell>
        <mxCell id="AfkZM9CXT5jYsA7M5CDT-57" value="+ Capacity: int" style="text;strokeColor=none;fillColor=none;align=left;verticalAlign=top;spacingLeft=4;spacingRight=4;overflow=hidden;rotatable=0;points=[[0,0.5],[1,0.5]];portConstraint=eastwest;whiteSpace=wrap;html=1;" parent="AfkZM9CXT5jYsA7M5CDT-56" vertex="1">
          <mxGeometry y="26" width="140" height="26" as="geometry" />
        </mxCell>
        <mxCell id="AfkZM9CXT5jYsA7M5CDT-58" value="+ Speciality: string" style="text;strokeColor=none;fillColor=none;align=left;verticalAlign=top;spacingLeft=4;spacingRight=4;overflow=hidden;rotatable=0;points=[[0,0.5],[1,0.5]];portConstraint=eastwest;whiteSpace=wrap;html=1;" parent="AfkZM9CXT5jYsA7M5CDT-56" vertex="1">
          <mxGeometry y="52" width="140" height="26" as="geometry" />
        </mxCell>
        <mxCell id="AfkZM9CXT5jYsA7M5CDT-59" value="Container" style="swimlane;fontStyle=0;childLayout=stackLayout;horizontal=1;startSize=26;fillColor=default;horizontalStack=0;resizeParent=1;resizeParentMax=0;resizeLast=0;collapsible=1;marginBottom=0;whiteSpace=wrap;html=1;" parent="1" vertex="1" collapsed="1">
          <mxGeometry x="440" y="840" width="70" height="30" as="geometry">
            <mxRectangle x="440" y="840" width="140" height="130" as="alternateBounds" />
          </mxGeometry>
        </mxCell>
        <mxCell id="AfkZM9CXT5jYsA7M5CDT-60" value="+ Weight: int" style="text;strokeColor=none;fillColor=none;align=left;verticalAlign=top;spacingLeft=4;spacingRight=4;overflow=hidden;rotatable=0;points=[[0,0.5],[1,0.5]];portConstraint=eastwest;whiteSpace=wrap;html=1;" parent="AfkZM9CXT5jYsA7M5CDT-59" vertex="1">
          <mxGeometry y="26" width="140" height="26" as="geometry" />
        </mxCell>
        <mxCell id="AfkZM9CXT5jYsA7M5CDT-61" value="+ Height: int" style="text;strokeColor=none;fillColor=none;align=left;verticalAlign=top;spacingLeft=4;spacingRight=4;overflow=hidden;rotatable=0;points=[[0,0.5],[1,0.5]];portConstraint=eastwest;whiteSpace=wrap;html=1;" parent="AfkZM9CXT5jYsA7M5CDT-59" vertex="1">
          <mxGeometry y="52" width="140" height="26" as="geometry" />
        </mxCell>
        <mxCell id="AfkZM9CXT5jYsA7M5CDT-66" value="+ Length: int" style="text;strokeColor=none;fillColor=none;align=left;verticalAlign=top;spacingLeft=4;spacingRight=4;overflow=hidden;rotatable=0;points=[[0,0.5],[1,0.5]];portConstraint=eastwest;whiteSpace=wrap;html=1;" parent="AfkZM9CXT5jYsA7M5CDT-59" vertex="1">
          <mxGeometry y="78" width="140" height="26" as="geometry" />
        </mxCell>
        <mxCell id="AfkZM9CXT5jYsA7M5CDT-67" value="+ Max_Load: int" style="text;strokeColor=none;fillColor=none;align=left;verticalAlign=top;spacingLeft=4;spacingRight=4;overflow=hidden;rotatable=0;points=[[0,0.5],[1,0.5]];portConstraint=eastwest;whiteSpace=wrap;html=1;" parent="AfkZM9CXT5jYsA7M5CDT-59" vertex="1">
          <mxGeometry y="104" width="140" height="26" as="geometry" />
        </mxCell>
        <mxCell id="AfkZM9CXT5jYsA7M5CDT-68" value="Relation" style="endArrow=open;html=1;endSize=12;startArrow=diamondThin;startSize=14;startFill=0;edgeStyle=orthogonalEdgeStyle;rounded=0;exitX=0.5;exitY=0;exitDx=0;exitDy=0;entryX=0.488;entryY=1.013;entryDx=0;entryDy=0;entryPerimeter=0;" parent="1" source="AfkZM9CXT5jYsA7M5CDT-18" target="AfkZM9CXT5jYsA7M5CDT-25" edge="1">
          <mxGeometry relative="1" as="geometry">
            <mxPoint x="80" y="440" as="sourcePoint" />
            <mxPoint x="370" y="450" as="targetPoint" />
            <Array as="points">
              <mxPoint x="370" y="470" />
              <mxPoint x="398" y="470" />
            </Array>
          </mxGeometry>
        </mxCell>
        <mxCell id="AfkZM9CXT5jYsA7M5CDT-69" value="0..n" style="edgeLabel;resizable=0;html=1;align=left;verticalAlign=top;" parent="AfkZM9CXT5jYsA7M5CDT-68" connectable="0" vertex="1">
          <mxGeometry x="-1" relative="1" as="geometry">
            <mxPoint y="-40" as="offset" />
          </mxGeometry>
        </mxCell>
        <mxCell id="AfkZM9CXT5jYsA7M5CDT-70" value="1" style="edgeLabel;resizable=0;html=1;align=right;verticalAlign=top;" parent="AfkZM9CXT5jYsA7M5CDT-68" connectable="0" vertex="1">
          <mxGeometry x="1" relative="1" as="geometry" />
        </mxCell>
        <mxCell id="AfkZM9CXT5jYsA7M5CDT-71" value="Drivers_Wrapper" style="swimlane;fontStyle=1;align=center;verticalAlign=top;childLayout=stackLayout;horizontal=1;startSize=26;horizontalStack=0;resizeParent=1;resizeParentMax=0;resizeLast=0;collapsible=1;marginBottom=0;whiteSpace=wrap;html=1;" parent="1" vertex="1">
          <mxGeometry x="540" y="200" width="160" height="200" as="geometry">
            <mxRectangle x="540" y="200" width="100" height="30" as="alternateBounds" />
          </mxGeometry>
        </mxCell>
        <mxCell id="AfkZM9CXT5jYsA7M5CDT-72" value="+ Driver_List: type&lt;div&gt;+ Size: int&lt;/div&gt;" style="text;strokeColor=none;fillColor=none;align=left;verticalAlign=top;spacingLeft=4;spacingRight=4;overflow=hidden;rotatable=0;points=[[0,0.5],[1,0.5]];portConstraint=eastwest;whiteSpace=wrap;html=1;" parent="AfkZM9CXT5jYsA7M5CDT-71" vertex="1">
          <mxGeometry y="26" width="160" height="64" as="geometry" />
        </mxCell>
        <mxCell id="AfkZM9CXT5jYsA7M5CDT-73" value="" style="line;strokeWidth=1;fillColor=none;align=left;verticalAlign=middle;spacingTop=-1;spacingLeft=3;spacingRight=3;rotatable=0;labelPosition=right;points=[];portConstraint=eastwest;strokeColor=inherit;" parent="AfkZM9CXT5jYsA7M5CDT-71" vertex="1">
          <mxGeometry y="90" width="160" height="8" as="geometry" />
        </mxCell>
        <mxCell id="AfkZM9CXT5jYsA7M5CDT-74" value="&lt;div&gt;+ Add()&lt;/div&gt;&lt;div&gt;+ Delete()&lt;/div&gt;&lt;div&gt;+ Search()&lt;/div&gt;&lt;div&gt;+ Edit()&lt;/div&gt;&lt;div&gt;+ Activer_List()&lt;/div&gt;&lt;div&gt;+ Unavailable_List()&lt;/div&gt;" style="text;strokeColor=none;fillColor=none;align=left;verticalAlign=top;spacingLeft=4;spacingRight=4;overflow=hidden;rotatable=0;points=[[0,0.5],[1,0.5]];portConstraint=eastwest;whiteSpace=wrap;html=1;" parent="AfkZM9CXT5jYsA7M5CDT-71" vertex="1">
          <mxGeometry y="98" width="160" height="102" as="geometry" />
        </mxCell>
        <mxCell id="AfkZM9CXT5jYsA7M5CDT-79" value="Maintenance_Info" style="swimlane;fontStyle=1;align=center;verticalAlign=top;childLayout=stackLayout;horizontal=1;startSize=30;horizontalStack=0;resizeParent=1;resizeParentMax=0;resizeLast=0;collapsible=1;marginBottom=0;whiteSpace=wrap;html=1;" parent="1" vertex="1">
          <mxGeometry y="420" width="160" height="190" as="geometry">
            <mxRectangle y="420" width="100" height="30" as="alternateBounds" />
          </mxGeometry>
        </mxCell>
        <mxCell id="AfkZM9CXT5jYsA7M5CDT-80" value="+ Car_ID: int&lt;div&gt;+ Date: date&lt;/div&gt;&lt;div&gt;+ Driver_ID: int&lt;/div&gt;&lt;div&gt;+ Maintenance_Time: time&lt;/div&gt;&lt;div&gt;&lt;br&gt;&lt;/div&gt;" style="text;strokeColor=none;fillColor=none;align=left;verticalAlign=top;spacingLeft=4;spacingRight=4;overflow=hidden;rotatable=0;points=[[0,0.5],[1,0.5]];portConstraint=eastwest;whiteSpace=wrap;html=1;" parent="AfkZM9CXT5jYsA7M5CDT-79" vertex="1">
          <mxGeometry y="30" width="160" height="80" as="geometry" />
        </mxCell>
        <mxCell id="AfkZM9CXT5jYsA7M5CDT-81" value="" style="line;strokeWidth=1;fillColor=none;align=left;verticalAlign=middle;spacingTop=-1;spacingLeft=3;spacingRight=3;rotatable=0;labelPosition=right;points=[];portConstraint=eastwest;strokeColor=inherit;" parent="AfkZM9CXT5jYsA7M5CDT-79" vertex="1">
          <mxGeometry y="110" width="160" height="8" as="geometry" />
        </mxCell>
        <mxCell id="AfkZM9CXT5jYsA7M5CDT-82" value="+ Assign_Driver(): int&amp;nbsp;&lt;div&gt;+ Alert(current_time): boolean&lt;br&gt;&lt;/div&gt;&lt;div&gt;+ Update()&lt;br&gt;&lt;/div&gt;&lt;div&gt;&lt;br&gt;&lt;/div&gt;" style="text;strokeColor=none;fillColor=none;align=left;verticalAlign=top;spacingLeft=4;spacingRight=4;overflow=hidden;rotatable=0;points=[[0,0.5],[1,0.5]];portConstraint=eastwest;whiteSpace=wrap;html=1;" parent="AfkZM9CXT5jYsA7M5CDT-79" vertex="1">
          <mxGeometry y="118" width="160" height="72" as="geometry" />
        </mxCell>
        <mxCell id="AfkZM9CXT5jYsA7M5CDT-83" value="1" style="endArrow=open;html=1;endSize=12;startArrow=diamondThin;startSize=14;startFill=1;edgeStyle=orthogonalEdgeStyle;align=left;verticalAlign=bottom;rounded=0;entryX=0;entryY=0.231;entryDx=0;entryDy=0;entryPerimeter=0;" parent="1" source="AfkZM9CXT5jYsA7M5CDT-80" target="AfkZM9CXT5jYsA7M5CDT-19" edge="1">
          <mxGeometry x="-1" y="3" relative="1" as="geometry">
            <mxPoint x="200" y="510" as="sourcePoint" />
            <mxPoint x="280" y="590" as="targetPoint" />
            <Array as="points">
              <mxPoint x="200" y="490" />
              <mxPoint x="200" y="590" />
            </Array>
          </mxGeometry>
        </mxCell>
        <mxCell id="AfkZM9CXT5jYsA7M5CDT-120" value="Driver" style="swimlane;fontStyle=1;align=center;verticalAlign=top;childLayout=stackLayout;horizontal=1;startSize=26;horizontalStack=0;resizeParent=1;resizeParentMax=0;resizeLast=0;collapsible=1;marginBottom=0;whiteSpace=wrap;html=1;" parent="1" vertex="1">
          <mxGeometry x="810" y="210" width="160" height="230" as="geometry">
            <mxRectangle x="290" y="600" width="100" height="30" as="alternateBounds" />
          </mxGeometry>
        </mxCell>
        <mxCell id="AfkZM9CXT5jYsA7M5CDT-121" value="+ ID: int&lt;div&gt;+ Lisence: Object&lt;/div&gt;&lt;div&gt;&lt;div&gt;+ YoE: int&lt;/div&gt;&lt;div&gt;+ Status: string (enum)&lt;/div&gt;&lt;div&gt;+ Recent_Trip: Object&lt;/div&gt;&lt;div&gt;+ Working_Time: int&lt;/div&gt;&lt;/div&gt;&lt;div&gt;+ Efficiency: string (enum)&lt;/div&gt;" style="text;strokeColor=none;fillColor=none;align=left;verticalAlign=top;spacingLeft=4;spacingRight=4;overflow=hidden;rotatable=0;points=[[0,0.5],[1,0.5]];portConstraint=eastwest;whiteSpace=wrap;html=1;" parent="AfkZM9CXT5jYsA7M5CDT-120" vertex="1">
          <mxGeometry y="26" width="160" height="114" as="geometry" />
        </mxCell>
        <mxCell id="AfkZM9CXT5jYsA7M5CDT-122" value="" style="line;strokeWidth=1;fillColor=none;align=left;verticalAlign=middle;spacingTop=-1;spacingLeft=3;spacingRight=3;rotatable=0;labelPosition=right;points=[];portConstraint=eastwest;strokeColor=inherit;" parent="AfkZM9CXT5jYsA7M5CDT-120" vertex="1">
          <mxGeometry y="140" width="160" height="8" as="geometry" />
        </mxCell>
        <mxCell id="AfkZM9CXT5jYsA7M5CDT-123" value="&lt;div&gt;&lt;span style=&quot;background-color: initial;&quot;&gt;+ Driver_info()&lt;/span&gt;&lt;br&gt;&lt;/div&gt;&lt;div&gt;+ Alert(type): boolean&lt;br&gt;&lt;/div&gt;&lt;div&gt;+ Update_Info()&lt;/div&gt;&lt;div&gt;+ Last_Drive(): Object&lt;/div&gt;" style="text;strokeColor=none;fillColor=none;align=left;verticalAlign=top;spacingLeft=4;spacingRight=4;overflow=hidden;rotatable=0;points=[[0,0.5],[1,0.5]];portConstraint=eastwest;whiteSpace=wrap;html=1;" parent="AfkZM9CXT5jYsA7M5CDT-120" vertex="1">
          <mxGeometry y="148" width="160" height="82" as="geometry" />
        </mxCell>
        <mxCell id="AfkZM9CXT5jYsA7M5CDT-125" value="Relation" style="endArrow=open;html=1;endSize=12;startArrow=diamondThin;startSize=14;startFill=0;edgeStyle=orthogonalEdgeStyle;rounded=0;exitX=-0.005;exitY=0.385;exitDx=0;exitDy=0;exitPerimeter=0;" parent="1" source="AfkZM9CXT5jYsA7M5CDT-121" edge="1">
          <mxGeometry relative="1" as="geometry">
            <mxPoint x="820" y="320" as="sourcePoint" />
            <mxPoint x="700" y="280" as="targetPoint" />
            <Array as="points">
              <mxPoint x="780" y="280" />
              <mxPoint x="780" y="280" />
            </Array>
          </mxGeometry>
        </mxCell>
        <mxCell id="AfkZM9CXT5jYsA7M5CDT-126" value="0..n" style="edgeLabel;resizable=0;html=1;align=left;verticalAlign=top;" parent="AfkZM9CXT5jYsA7M5CDT-125" connectable="0" vertex="1">
          <mxGeometry x="-1" relative="1" as="geometry">
            <mxPoint x="-29" as="offset" />
          </mxGeometry>
        </mxCell>
        <mxCell id="AfkZM9CXT5jYsA7M5CDT-127" value="1" style="edgeLabel;resizable=0;html=1;align=right;verticalAlign=top;" parent="AfkZM9CXT5jYsA7M5CDT-125" connectable="0" vertex="1">
          <mxGeometry x="1" relative="1" as="geometry">
            <mxPoint x="20" as="offset" />
          </mxGeometry>
        </mxCell>
        <mxCell id="AfkZM9CXT5jYsA7M5CDT-128" value="1" style="endArrow=open;html=1;endSize=12;startArrow=diamondThin;startSize=14;startFill=1;edgeStyle=orthogonalEdgeStyle;align=left;verticalAlign=bottom;rounded=0;entryX=-0.001;entryY=0.739;entryDx=0;entryDy=0;entryPerimeter=0;exitX=1.005;exitY=0.445;exitDx=0;exitDy=0;exitPerimeter=0;" parent="1" source="AfkZM9CXT5jYsA7M5CDT-27" target="AfkZM9CXT5jYsA7M5CDT-121" edge="1">
          <mxGeometry x="-0.833" y="2" relative="1" as="geometry">
            <mxPoint x="730" y="430" as="sourcePoint" />
            <mxPoint x="830" y="480" as="targetPoint" />
            <Array as="points">
              <mxPoint x="760" y="639" />
              <mxPoint x="760" y="320" />
            </Array>
            <mxPoint as="offset" />
          </mxGeometry>
        </mxCell>
        <mxCell id="AfkZM9CXT5jYsA7M5CDT-129" value="Use" style="endArrow=open;endSize=12;dashed=1;html=1;rounded=0;exitX=0.271;exitY=1.001;exitDx=0;exitDy=0;exitPerimeter=0;entryX=0.5;entryY=0;entryDx=0;entryDy=0;" parent="1" source="AfkZM9CXT5jYsA7M5CDT-130" target="AfkZM9CXT5jYsA7M5CDT-22" edge="1">
          <mxGeometry width="160" relative="1" as="geometry">
            <mxPoint x="670" y="160" as="sourcePoint" />
            <mxPoint x="830" y="160" as="targetPoint" />
          </mxGeometry>
        </mxCell>
        <mxCell id="AfkZM9CXT5jYsA7M5CDT-130" value="«interface»&lt;br&gt;&lt;b&gt;Webpage Interface&lt;/b&gt;" style="html=1;whiteSpace=wrap;" parent="1" vertex="1">
          <mxGeometry x="810" y="20" width="110" height="50" as="geometry" />
        </mxCell>
        <mxCell id="AfkZM9CXT5jYsA7M5CDT-131" value="Use" style="endArrow=open;endSize=12;dashed=1;html=1;rounded=0;entryX=0.366;entryY=-0.003;entryDx=0;entryDy=0;entryPerimeter=0;exitX=0.5;exitY=1;exitDx=0;exitDy=0;" parent="1" target="AfkZM9CXT5jYsA7M5CDT-71" edge="1" source="AfkZM9CXT5jYsA7M5CDT-130">
          <mxGeometry width="160" relative="1" as="geometry">
            <mxPoint x="560" y="70" as="sourcePoint" />
            <mxPoint x="550" y="180" as="targetPoint" />
          </mxGeometry>
        </mxCell>
        <mxCell id="AfkZM9CXT5jYsA7M5CDT-132" style="edgeStyle=orthogonalEdgeStyle;rounded=0;orthogonalLoop=1;jettySize=auto;html=1;entryX=1;entryY=0.886;entryDx=0;entryDy=0;entryPerimeter=0;" parent="1" source="AfkZM9CXT5jYsA7M5CDT-130" target="AfkZM9CXT5jYsA7M5CDT-2" edge="1">
          <mxGeometry relative="1" as="geometry" />
        </mxCell>
        <mxCell id="AfkZM9CXT5jYsA7M5CDT-133" value="Use" style="endArrow=open;endSize=12;dashed=1;html=1;rounded=0;exitX=-0.005;exitY=0.755;exitDx=0;exitDy=0;exitPerimeter=0;entryX=0.438;entryY=0;entryDx=0;entryDy=0;entryPerimeter=0;" parent="1" source="AfkZM9CXT5jYsA7M5CDT-2" target="AfkZM9CXT5jYsA7M5CDT-14" edge="1">
          <mxGeometry width="160" relative="1" as="geometry">
            <mxPoint x="270" y="160" as="sourcePoint" />
            <mxPoint x="100" y="120" as="targetPoint" />
          </mxGeometry>
        </mxCell>
        <mxCell id="-HmPp9UbWY_7M4E4YUgq-1" value="Trip_Schedule" style="swimlane;fontStyle=1;align=center;verticalAlign=top;childLayout=stackLayout;horizontal=1;startSize=26;horizontalStack=0;resizeParent=1;resizeParentMax=0;resizeLast=0;collapsible=1;marginBottom=0;whiteSpace=wrap;html=1;" vertex="1" parent="1">
          <mxGeometry x="1050" y="200" width="160" height="200" as="geometry">
            <mxRectangle x="540" y="200" width="100" height="30" as="alternateBounds" />
          </mxGeometry>
        </mxCell>
        <mxCell id="-HmPp9UbWY_7M4E4YUgq-2" value="+ Trip_List: type&lt;div&gt;+ Size: int&lt;/div&gt;&lt;div&gt;+ Balances: int&lt;/div&gt;" style="text;strokeColor=none;fillColor=none;align=left;verticalAlign=top;spacingLeft=4;spacingRight=4;overflow=hidden;rotatable=0;points=[[0,0.5],[1,0.5]];portConstraint=eastwest;whiteSpace=wrap;html=1;" vertex="1" parent="-HmPp9UbWY_7M4E4YUgq-1">
          <mxGeometry y="26" width="160" height="64" as="geometry" />
        </mxCell>
        <mxCell id="-HmPp9UbWY_7M4E4YUgq-3" value="" style="line;strokeWidth=1;fillColor=none;align=left;verticalAlign=middle;spacingTop=-1;spacingLeft=3;spacingRight=3;rotatable=0;labelPosition=right;points=[];portConstraint=eastwest;strokeColor=inherit;" vertex="1" parent="-HmPp9UbWY_7M4E4YUgq-1">
          <mxGeometry y="90" width="160" height="8" as="geometry" />
        </mxCell>
        <mxCell id="-HmPp9UbWY_7M4E4YUgq-4" value="&lt;div&gt;+ Add()&lt;/div&gt;&lt;div&gt;+ Delete()&lt;/div&gt;&lt;div&gt;+ Search()&lt;/div&gt;&lt;div&gt;+ Edit()&lt;/div&gt;" style="text;strokeColor=none;fillColor=none;align=left;verticalAlign=top;spacingLeft=4;spacingRight=4;overflow=hidden;rotatable=0;points=[[0,0.5],[1,0.5]];portConstraint=eastwest;whiteSpace=wrap;html=1;" vertex="1" parent="-HmPp9UbWY_7M4E4YUgq-1">
          <mxGeometry y="98" width="160" height="102" as="geometry" />
        </mxCell>
        <mxCell id="-HmPp9UbWY_7M4E4YUgq-5" value="Use" style="endArrow=open;endSize=12;dashed=1;html=1;rounded=0;exitX=0.719;exitY=1.002;exitDx=0;exitDy=0;exitPerimeter=0;entryX=0.412;entryY=-0.002;entryDx=0;entryDy=0;entryPerimeter=0;" edge="1" parent="1" source="AfkZM9CXT5jYsA7M5CDT-130" target="-HmPp9UbWY_7M4E4YUgq-1">
          <mxGeometry width="160" relative="1" as="geometry">
            <mxPoint x="886" y="83" as="sourcePoint" />
            <mxPoint x="1080" y="190" as="targetPoint" />
          </mxGeometry>
        </mxCell>
        <mxCell id="-HmPp9UbWY_7M4E4YUgq-6" value="Relation" style="endArrow=open;html=1;endSize=12;startArrow=diamondThin;startSize=14;startFill=0;edgeStyle=orthogonalEdgeStyle;rounded=0;exitX=1.009;exitY=0.694;exitDx=0;exitDy=0;exitPerimeter=0;entryX=0.43;entryY=1.012;entryDx=0;entryDy=0;entryPerimeter=0;" edge="1" parent="1" source="AfkZM9CXT5jYsA7M5CDT-27" target="-HmPp9UbWY_7M4E4YUgq-4">
          <mxGeometry relative="1" as="geometry">
            <mxPoint x="750" y="680" as="sourcePoint" />
            <mxPoint x="1120" y="420" as="targetPoint" />
            <Array as="points">
              <mxPoint x="1119" y="680" />
            </Array>
          </mxGeometry>
        </mxCell>
        <mxCell id="-HmPp9UbWY_7M4E4YUgq-7" value="0..n" style="edgeLabel;resizable=0;html=1;align=left;verticalAlign=top;" connectable="0" vertex="1" parent="-HmPp9UbWY_7M4E4YUgq-6">
          <mxGeometry x="-1" relative="1" as="geometry" />
        </mxCell>
        <mxCell id="-HmPp9UbWY_7M4E4YUgq-8" value="1" style="edgeLabel;resizable=0;html=1;align=right;verticalAlign=top;" connectable="0" vertex="1" parent="-HmPp9UbWY_7M4E4YUgq-6">
          <mxGeometry x="1" relative="1" as="geometry" />
        </mxCell>
      </root>
    </mxGraphModel>
  </diagram>
</mxfile>
